<svg id="Logo" xmlns="http://www.w3.org/2000/svg" xmlns:xlink="http://www.w3.org/1999/xlink" width="113" height="46" viewBox="0 0 113 46">
  <defs>
    <style>
      .cls-1 {
        fill: none;
        stroke: #1c1621;
        stroke-width: 5.54px;
      }

      .cls-1, .cls-2, .cls-3 {
        fill-rule: evenodd;
      }

      .cls-2 {
        fill: #a3eee4;
        filter: url(#filter);
      }

      .cls-3 {
        filter: url(#filter-2);
      }
    </style>
    <filter id="filter" x="39" y="15" width="19" height="19" filterUnits="userSpaceOnUse">
      <feOffset result="offset" in="SourceAlpha"/>
      <feGaussianBlur result="blur" stdDeviation="1.414"/>
      <feFlood result="flood" flood-color="#1b1b1d" flood-opacity="0.75"/>
      <feComposite result="composite" operator="in" in2="blur"/>
      <feBlend result="blend" in="SourceGraphic"/>
    </filter>
    <filter id="filter-2" x="13" y="17" width="88" height="17" filterUnits="userSpaceOnUse">
      <feOffset result="offset" in="SourceAlpha"/>
      <feGaussianBlur result="blur" stdDeviation="1.414"/>
      <feFlood result="flood" flood-color="#1b1b1d" flood-opacity="0.75"/>
      <feComposite result="composite" operator="in" in2="blur"/>
      <feBlend result="blend" in="SourceGraphic"/>
    </filter>
  </defs>
  <path class="cls-1" d="M2,2H111V44H2V2Z"/>
  <path id="SHOPNO" class="cls-2" d="M51.169,26.916a4.175,4.175,0,0,1-6.195,0,5.068,5.068,0,0,1,0-6.689,4.154,4.154,0,0,1,6.2,0A5.068,5.068,0,0,1,51.169,26.916Zm4.6-3.35a7.252,7.252,0,0,0-2.226-5.407,8,8,0,0,0-10.962,0,7.251,7.251,0,0,0-2.226,5.407,7.251,7.251,0,0,0,2.226,5.408,8,8,0,0,0,10.962,0A7.252,7.252,0,0,0,55.768,23.566Z"/>
  <path id="SHOPNO_копия" data-name="SHOPNO копия" class="cls-3" d="M18.835,21.174a5.233,5.233,0,0,1,3.2,1.173l1.343-1.938A6.377,6.377,0,0,0,21.3,19.253a7.3,7.3,0,0,0-2.38-.408,4.89,4.89,0,0,0-3.034.918,3.076,3.076,0,0,0-1.216,2.609,3.03,3.03,0,0,0,.961,2.482,7.611,7.611,0,0,0,3.034,1.284,5.772,5.772,0,0,1,1.751.637,0.991,0.991,0,0,1,.442.85,1.01,1.01,0,0,1-.417.85,1.865,1.865,0,0,1-1.147.314,5.624,5.624,0,0,1-3.553-1.683L14.16,29.045a7.3,7.3,0,0,0,5.083,2.091,4.778,4.778,0,0,0,3.153-.994,3.209,3.209,0,0,0,1.2-2.593,3.087,3.087,0,0,0-.935-2.431,6.081,6.081,0,0,0-2.626-1.249,8.542,8.542,0,0,1-2.159-.723,0.941,0.941,0,0,1-.468-0.825,1.025,1.025,0,0,1,.383-0.833,1.6,1.6,0,0,1,1.046-.314h0Zm15.419,2.907H29.528V19.117H26.876V31h2.652V26.325h4.726V31h2.652V19.117H34.254v4.964Zm29.4-4.964h-4.2V31h2.652V27.685h1.581a6.243,6.243,0,0,0,3.919-1.02,3.867,3.867,0,0,0,1.283-3.221,4.05,4.05,0,0,0-1.249-3.264,6.1,6.1,0,0,0-3.986-1.062h0Zm0.238,6.273H62.107v-4H63.62a3.411,3.411,0,0,1,1.93.433,1.658,1.658,0,0,1,.62,1.462,2.285,2.285,0,0,1-.476,1.564,2.367,2.367,0,0,1-1.8.535h0Zm16.4,1.377-5.831-7.65H71.984V31h2.652V23.554L80.3,31h2.652V19.117H80.3v7.65Zm14.671,0.927a3.38,3.38,0,0,1-5.015,0,4.1,4.1,0,0,1,0-5.414,3.363,3.363,0,0,1,5.015,0A4.1,4.1,0,0,1,94.968,27.694Zm3.723-2.712a5.871,5.871,0,0,0-1.8-4.377,6.474,6.474,0,0,0-8.874,0,5.87,5.87,0,0,0-1.8,4.377,5.87,5.87,0,0,0,1.8,4.378,6.474,6.474,0,0,0,8.874,0A5.871,5.871,0,0,0,98.691,24.982Z"/>
</svg>
